<?xml version="1.0" encoding="UTF-8"?>
<svg data-bbox="0 0 283.25 252.082" viewBox="0 0 283.25 252.08" xmlns="http://www.w3.org/2000/svg" data-type="shape" fill="#059C65">
    <g>
        <path d="M137.25 61h133s-9.17-60-85.33-61h-40.67s-24 2.5-24 29.67 17 31.33 17 31.33Z"/>
        <path d="M108.38 157h168.87s13.5-35 0-79.75l-165.52 1.18A57.26 57.26 0 0 0 79.12 88.6c-8.57 6-16.37 15.19-16.37 28.52 0 20 17.48 31.13 28.88 36.29a40.61 40.61 0 0 0 16.75 3.59Z"/>
        <path d="M38 252.08 164.53 251a29.3 29.3 0 0 0 5.68-.61c14.54-3 76.5-19.15 100-76.35H35.85a25.92 25.92 0 0 0-9.06 1.63C17.59 179 0 188.74 0 213.06c0 21.37 13.68 31.45 23.29 35.9A34.38 34.38 0 0 0 38 252.08Z"/>
    </g>
</svg>
