<svg xmlns="http://www.w3.org/2000/svg" xmlns:xlink="http://www.w3.org/1999/xlink" width="2110" zoomAndPan="magnify" viewBox="0 0 1582.5 370.499989" height="494" preserveAspectRatio="xMidYMid meet" version="1.0"><defs><filter x="0%" y="0%" width="100%" height="100%" id="000bb1059e"><feColorMatrix values="0 0 0 0 1 0 0 0 0 1 0 0 0 0 1 0 0 0 1 0" color-interpolation-filters="sRGB"/></filter><clipPath id="237f1fd6b1"><path d="M 0.816406 0 L 1581 0 L 1581 370 L 0.816406 370 Z M 0.816406 0 " clip-rule="nonzero"/></clipPath><mask id="094a09deb8"><g filter="url(#000bb1059e)"><rect x="-158.25" width="1899" fill="#000000" y="-37.049999" height="444.599987" fill-opacity="1"/></g></mask><clipPath id="9472e934bc"><path d="M 1.054688 0.3125 L 370.433594 0.3125 L 370.433594 369.582031 L 1.054688 369.582031 Z M 1.054688 0.3125 " clip-rule="nonzero"/></clipPath><clipPath id="d42a8b3e38"><path d="M 301.96875 0.3125 L 671.347656 0.3125 L 671.347656 369.582031 L 301.96875 369.582031 Z M 301.96875 0.3125 " clip-rule="nonzero"/></clipPath><clipPath id="b013911ce8"><path d="M 607.273438 0.3125 L 976.652344 0.3125 L 976.652344 369.582031 L 607.273438 369.582031 Z M 607.273438 0.3125 " clip-rule="nonzero"/></clipPath><clipPath id="f7665871bf"><path d="M 908.1875 0.3125 L 1277.566406 0.3125 L 1277.566406 369.582031 L 908.1875 369.582031 Z M 908.1875 0.3125 " clip-rule="nonzero"/></clipPath><clipPath id="48ba26f728"><path d="M 1211.636719 0.3125 L 1580.765625 0.3125 L 1580.765625 369.582031 L 1211.636719 369.582031 Z M 1211.636719 0.3125 " clip-rule="nonzero"/></clipPath><clipPath id="a245314b18"><rect x="0" width="1581" y="0" height="370"/></clipPath></defs><g clip-path="url(#237f1fd6b1)"><g mask="url(#094a09deb8)"><g transform="matrix(1, 0, 0, 1, 0.000000000000000111, 0)"><g clip-path="url(#a245314b18)"><g clip-path="url(#9472e934bc)"><path fill="#e2fff4" d="M 368.308594 125.75 C 368.550781 125.75 368.78125 125.707031 369 125.613281 C 369.222656 125.523438 369.417969 125.390625 369.589844 125.222656 C 369.757812 125.050781 369.890625 124.855469 369.980469 124.632812 C 370.074219 124.414062 370.117188 124.183594 370.117188 123.941406 C 370.117188 123.703125 370.074219 123.472656 369.980469 123.25 C 369.890625 123.027344 369.757812 122.832031 369.589844 122.664062 C 369.417969 122.492188 369.222656 122.363281 369 122.269531 C 368.78125 122.179688 368.550781 122.132812 368.308594 122.132812 L 309.214844 122.132812 L 309.214844 64.835938 L 368.308594 64.835938 C 368.550781 64.835938 368.78125 64.792969 369 64.699219 C 369.222656 64.609375 369.417969 64.476562 369.589844 64.308594 C 369.757812 64.136719 369.890625 63.941406 369.980469 63.71875 C 370.074219 63.5 370.117188 63.269531 370.117188 63.027344 C 370.117188 62.789062 370.074219 62.558594 369.980469 62.335938 C 369.890625 62.113281 369.757812 61.917969 369.589844 61.75 C 369.417969 61.578125 369.222656 61.449219 369 61.355469 C 368.78125 61.265625 368.550781 61.21875 368.308594 61.21875 L 309.214844 61.21875 L 309.214844 2.125 C 309.214844 1.882812 309.167969 1.652344 309.074219 1.429688 C 308.984375 1.210938 308.855469 1.015625 308.683594 0.84375 C 308.515625 0.675781 308.320312 0.542969 308.097656 0.453125 C 307.875 0.359375 307.644531 0.3125 307.40625 0.3125 C 307.164062 0.3125 306.933594 0.359375 306.710938 0.453125 C 306.492188 0.542969 306.296875 0.675781 306.125 0.84375 C 305.957031 1.015625 305.824219 1.210938 305.734375 1.429688 C 305.640625 1.652344 305.59375 1.882812 305.59375 2.125 L 305.59375 61.21875 L 248.300781 61.21875 L 248.300781 2.125 C 248.300781 1.882812 248.253906 1.652344 248.164062 1.429688 C 248.070312 1.210938 247.941406 1.015625 247.769531 0.84375 C 247.601562 0.675781 247.40625 0.542969 247.183594 0.453125 C 246.960938 0.359375 246.730469 0.3125 246.492188 0.3125 C 246.25 0.3125 246.019531 0.359375 245.796875 0.453125 C 245.578125 0.542969 245.382812 0.675781 245.210938 0.84375 C 245.042969 1.015625 244.910156 1.210938 244.820312 1.429688 C 244.726562 1.652344 244.683594 1.882812 244.683594 2.125 L 244.683594 61.21875 L 187.394531 61.21875 L 187.394531 2.125 C 187.394531 1.882812 187.347656 1.652344 187.257812 1.429688 C 187.164062 1.210938 187.035156 1.015625 186.867188 0.84375 C 186.695312 0.675781 186.5 0.542969 186.277344 0.453125 C 186.058594 0.359375 185.824219 0.3125 185.585938 0.3125 C 185.347656 0.3125 185.117188 0.359375 184.894531 0.453125 C 184.671875 0.542969 184.476562 0.675781 184.308594 0.84375 C 184.136719 1.015625 184.007812 1.210938 183.914062 1.429688 C 183.824219 1.652344 183.777344 1.882812 183.777344 2.125 L 183.777344 61.21875 L 126.492188 61.21875 L 126.492188 2.125 C 126.492188 1.882812 126.445312 1.652344 126.351562 1.429688 C 126.261719 1.210938 126.128906 1.015625 125.960938 0.84375 C 125.792969 0.675781 125.59375 0.542969 125.375 0.453125 C 125.152344 0.359375 124.921875 0.3125 124.679688 0.3125 C 124.441406 0.3125 124.210938 0.359375 123.988281 0.453125 C 123.765625 0.542969 123.570312 0.675781 123.402344 0.84375 C 123.234375 1.015625 123.101562 1.210938 123.011719 1.429688 C 122.917969 1.652344 122.871094 1.882812 122.871094 2.125 L 122.871094 61.21875 L 65.578125 61.21875 L 65.578125 2.125 C 65.578125 1.882812 65.53125 1.652344 65.4375 1.429688 C 65.347656 1.210938 65.214844 1.015625 65.046875 0.84375 C 64.878906 0.675781 64.683594 0.542969 64.460938 0.453125 C 64.238281 0.359375 64.007812 0.3125 63.769531 0.3125 C 63.527344 0.3125 63.296875 0.359375 63.074219 0.453125 C 62.855469 0.542969 62.65625 0.675781 62.488281 0.84375 C 62.320312 1.015625 62.1875 1.210938 62.097656 1.429688 C 62.003906 1.652344 61.957031 1.882812 61.957031 2.125 L 61.957031 61.21875 L 2.863281 61.21875 C 2.621094 61.21875 2.390625 61.265625 2.171875 61.355469 C 1.949219 61.449219 1.753906 61.578125 1.582031 61.75 C 1.414062 61.917969 1.285156 62.113281 1.191406 62.335938 C 1.101562 62.558594 1.054688 62.789062 1.054688 63.027344 C 1.054688 63.269531 1.101562 63.5 1.191406 63.71875 C 1.285156 63.941406 1.414062 64.136719 1.582031 64.308594 C 1.753906 64.476562 1.949219 64.609375 2.171875 64.699219 C 2.390625 64.792969 2.621094 64.835938 2.863281 64.835938 L 61.957031 64.835938 L 61.957031 122.132812 L 2.863281 122.132812 C 2.621094 122.132812 2.390625 122.179688 2.171875 122.269531 C 1.949219 122.363281 1.753906 122.492188 1.582031 122.664062 C 1.414062 122.832031 1.285156 123.027344 1.191406 123.25 C 1.101562 123.472656 1.054688 123.703125 1.054688 123.941406 C 1.054688 124.183594 1.101562 124.414062 1.191406 124.632812 C 1.285156 124.855469 1.414062 125.050781 1.582031 125.222656 C 1.753906 125.390625 1.949219 125.523438 2.171875 125.613281 C 2.390625 125.707031 2.621094 125.75 2.863281 125.75 L 61.957031 125.75 L 61.957031 183.039062 L 2.863281 183.039062 C 2.621094 183.039062 2.390625 183.082031 2.171875 183.175781 C 1.949219 183.265625 1.753906 183.398438 1.582031 183.566406 C 1.414062 183.738281 1.285156 183.933594 1.191406 184.15625 C 1.101562 184.375 1.054688 184.605469 1.054688 184.847656 C 1.054688 185.085938 1.101562 185.316406 1.191406 185.539062 C 1.285156 185.761719 1.414062 185.957031 1.582031 186.125 C 1.753906 186.296875 1.949219 186.425781 2.171875 186.519531 C 2.390625 186.609375 2.621094 186.65625 2.863281 186.65625 L 61.957031 186.65625 L 61.957031 243.941406 L 2.863281 243.941406 C 2.621094 243.941406 2.390625 243.988281 2.171875 244.082031 C 1.949219 244.171875 1.753906 244.300781 1.582031 244.472656 C 1.414062 244.640625 1.285156 244.835938 1.191406 245.058594 C 1.101562 245.28125 1.054688 245.511719 1.054688 245.75 C 1.054688 245.992188 1.101562 246.222656 1.191406 246.445312 C 1.285156 246.664062 1.414062 246.859375 1.582031 247.03125 C 1.753906 247.199219 1.949219 247.332031 2.171875 247.421875 C 2.390625 247.515625 2.621094 247.5625 2.863281 247.5625 L 61.957031 247.5625 L 61.957031 304.855469 L 2.863281 304.855469 C 2.621094 304.855469 2.390625 304.902344 2.171875 304.992188 C 1.949219 305.085938 1.753906 305.214844 1.582031 305.386719 C 1.414062 305.554688 1.285156 305.75 1.191406 305.972656 C 1.101562 306.195312 1.054688 306.425781 1.054688 306.664062 C 1.054688 306.90625 1.101562 307.136719 1.191406 307.359375 C 1.285156 307.578125 1.414062 307.773438 1.582031 307.945312 C 1.753906 308.113281 1.949219 308.246094 2.171875 308.335938 C 2.390625 308.429688 2.621094 308.472656 2.863281 308.472656 L 61.957031 308.472656 L 61.957031 367.570312 C 61.957031 367.808594 62.003906 368.039062 62.097656 368.261719 C 62.1875 368.484375 62.320312 368.679688 62.488281 368.847656 C 62.65625 369.019531 62.855469 369.148438 63.074219 369.242188 C 63.296875 369.332031 63.527344 369.378906 63.769531 369.378906 C 64.007812 369.378906 64.238281 369.332031 64.460938 369.242188 C 64.683594 369.148438 64.878906 369.019531 65.046875 368.847656 C 65.214844 368.679688 65.347656 368.484375 65.4375 368.261719 C 65.53125 368.039062 65.578125 367.808594 65.578125 367.570312 L 65.578125 308.472656 L 122.871094 308.472656 L 122.871094 367.570312 C 122.871094 367.808594 122.917969 368.039062 123.011719 368.261719 C 123.101562 368.484375 123.234375 368.679688 123.402344 368.847656 C 123.570312 369.019531 123.765625 369.148438 123.988281 369.242188 C 124.210938 369.332031 124.441406 369.378906 124.679688 369.378906 C 124.921875 369.378906 125.152344 369.332031 125.375 369.242188 C 125.59375 369.148438 125.792969 369.019531 125.960938 368.847656 C 126.128906 368.679688 126.261719 368.484375 126.351562 368.261719 C 126.445312 368.039062 126.492188 367.808594 126.492188 367.570312 L 126.492188 308.472656 L 183.777344 308.472656 L 183.777344 367.570312 C 183.777344 367.808594 183.824219 368.039062 183.914062 368.261719 C 184.007812 368.484375 184.136719 368.679688 184.308594 368.847656 C 184.476562 369.019531 184.671875 369.148438 184.894531 369.242188 C 185.117188 369.332031 185.347656 369.378906 185.585938 369.378906 C 185.824219 369.378906 186.058594 369.332031 186.277344 369.242188 C 186.5 369.148438 186.695312 369.019531 186.867188 368.847656 C 187.035156 368.679688 187.164062 368.484375 187.257812 368.261719 C 187.347656 368.039062 187.394531 367.808594 187.394531 367.570312 L 187.394531 308.472656 L 244.683594 308.472656 L 244.683594 367.570312 C 244.683594 367.808594 244.726562 368.039062 244.820312 368.261719 C 244.910156 368.484375 245.042969 368.679688 245.210938 368.847656 C 245.382812 369.019531 245.578125 369.148438 245.796875 369.242188 C 246.019531 369.332031 246.25 369.378906 246.492188 369.378906 C 246.730469 369.378906 246.960938 369.332031 247.183594 369.242188 C 247.40625 369.148438 247.601562 369.019531 247.769531 368.847656 C 247.941406 368.679688 248.070312 368.484375 248.164062 368.261719 C 248.253906 368.039062 248.300781 367.808594 248.300781 367.570312 L 248.300781 308.472656 L 305.59375 308.472656 L 305.59375 367.570312 C 305.59375 367.808594 305.640625 368.039062 305.734375 368.261719 C 305.824219 368.484375 305.957031 368.679688 306.125 368.847656 C 306.296875 369.019531 306.492188 369.148438 306.710938 369.242188 C 306.933594 369.332031 307.164062 369.378906 307.40625 369.378906 C 307.644531 369.378906 307.875 369.332031 308.097656 369.242188 C 308.320312 369.148438 308.515625 369.019531 308.683594 368.847656 C 308.855469 368.679688 308.984375 368.484375 309.074219 368.261719 C 309.167969 368.039062 309.214844 367.808594 309.214844 367.570312 L 309.214844 308.472656 L 368.308594 308.472656 C 368.550781 308.472656 368.78125 308.429688 369 308.335938 C 369.222656 308.246094 369.417969 308.113281 369.589844 307.945312 C 369.757812 307.773438 369.890625 307.578125 369.980469 307.359375 C 370.074219 307.136719 370.117188 306.90625 370.117188 306.664062 C 370.117188 306.425781 370.074219 306.195312 369.980469 305.972656 C 369.890625 305.75 369.757812 305.554688 369.589844 305.386719 C 369.417969 305.214844 369.222656 305.085938 369 304.992188 C 368.78125 304.902344 368.550781 304.855469 368.308594 304.855469 L 309.214844 304.855469 L 309.214844 247.5625 L 368.308594 247.5625 C 368.550781 247.5625 368.78125 247.515625 369 247.421875 C 369.222656 247.332031 369.417969 247.199219 369.589844 247.03125 C 369.757812 246.859375 369.890625 246.664062 369.980469 246.445312 C 370.074219 246.222656 370.117188 245.992188 370.117188 245.75 C 370.117188 245.511719 370.074219 245.28125 369.980469 245.058594 C 369.890625 244.835938 369.757812 244.640625 369.589844 244.472656 C 369.417969 244.300781 369.222656 244.171875 369 244.082031 C 368.78125 243.988281 368.550781 243.941406 368.308594 243.941406 L 309.214844 243.941406 L 309.214844 186.65625 L 368.308594 186.65625 C 368.550781 186.65625 368.78125 186.609375 369 186.519531 C 369.222656 186.425781 369.417969 186.296875 369.589844 186.125 C 369.757812 185.957031 369.890625 185.761719 369.980469 185.539062 C 370.074219 185.316406 370.117188 185.085938 370.117188 184.847656 C 370.117188 184.605469 370.074219 184.375 369.980469 184.15625 C 369.890625 183.933594 369.757812 183.738281 369.589844 183.566406 C 369.417969 183.398438 369.222656 183.265625 369 183.175781 C 368.78125 183.082031 368.550781 183.039062 368.308594 183.039062 L 309.214844 183.039062 L 309.214844 125.75 Z M 305.59375 64.835938 L 305.59375 122.132812 L 248.300781 122.132812 L 248.300781 64.835938 Z M 244.683594 64.835938 L 244.683594 122.132812 L 187.394531 122.132812 L 187.394531 64.835938 Z M 183.777344 186.65625 L 183.777344 243.941406 L 126.492188 243.941406 L 126.492188 186.65625 Z M 126.492188 183.039062 L 126.492188 125.75 L 183.777344 125.75 L 183.777344 183.039062 Z M 187.394531 186.65625 L 244.683594 186.65625 L 244.683594 243.941406 L 187.394531 243.941406 Z M 187.394531 183.039062 L 187.394531 125.75 L 244.683594 125.75 L 244.683594 183.039062 Z M 183.777344 64.835938 L 183.777344 122.132812 L 126.492188 122.132812 L 126.492188 64.835938 Z M 65.578125 64.835938 L 122.871094 64.835938 L 122.871094 122.132812 L 65.578125 122.132812 Z M 65.578125 125.75 L 122.871094 125.75 L 122.871094 183.039062 L 65.578125 183.039062 Z M 65.578125 186.65625 L 122.871094 186.65625 L 122.871094 243.941406 L 65.578125 243.941406 Z M 65.578125 304.855469 L 65.578125 247.5625 L 122.871094 247.5625 L 122.871094 304.855469 Z M 126.492188 304.855469 L 126.492188 247.5625 L 183.777344 247.5625 L 183.777344 304.855469 Z M 187.394531 304.855469 L 187.394531 247.5625 L 244.683594 247.5625 L 244.683594 304.855469 Z M 305.59375 304.855469 L 248.300781 304.855469 L 248.300781 247.5625 L 305.59375 247.5625 Z M 305.59375 243.941406 L 248.300781 243.941406 L 248.300781 186.65625 L 305.59375 186.65625 Z M 305.59375 183.039062 L 248.300781 183.039062 L 248.300781 125.75 L 305.59375 125.75 Z M 305.59375 183.039062 " fill-opacity="1" fill-rule="nonzero"/></g><g clip-path="url(#d42a8b3e38)"><path fill="#e2fff4" d="M 669.222656 125.75 C 669.464844 125.75 669.695312 125.707031 669.914062 125.613281 C 670.136719 125.523438 670.332031 125.390625 670.503906 125.222656 C 670.671875 125.050781 670.804688 124.855469 670.894531 124.632812 C 670.988281 124.414062 671.03125 124.183594 671.03125 123.941406 C 671.03125 123.703125 670.988281 123.472656 670.894531 123.25 C 670.804688 123.027344 670.671875 122.832031 670.503906 122.664062 C 670.332031 122.492188 670.136719 122.363281 669.914062 122.269531 C 669.695312 122.179688 669.464844 122.132812 669.222656 122.132812 L 610.128906 122.132812 L 610.128906 64.835938 L 669.222656 64.835938 C 669.464844 64.835938 669.695312 64.792969 669.914062 64.699219 C 670.136719 64.609375 670.332031 64.476562 670.503906 64.308594 C 670.671875 64.136719 670.804688 63.941406 670.894531 63.71875 C 670.988281 63.5 671.03125 63.269531 671.03125 63.027344 C 671.03125 62.789062 670.988281 62.558594 670.894531 62.335938 C 670.804688 62.113281 670.671875 61.917969 670.503906 61.75 C 670.332031 61.578125 670.136719 61.449219 669.914062 61.355469 C 669.695312 61.265625 669.464844 61.21875 669.222656 61.21875 L 610.128906 61.21875 L 610.128906 2.125 C 610.128906 1.882812 610.082031 1.652344 609.992188 1.429688 C 609.898438 1.210938 609.769531 1.015625 609.597656 0.84375 C 609.429688 0.675781 609.234375 0.542969 609.011719 0.453125 C 608.789062 0.359375 608.558594 0.3125 608.320312 0.3125 C 608.078125 0.3125 607.847656 0.359375 607.625 0.453125 C 607.40625 0.542969 607.210938 0.675781 607.039062 0.84375 C 606.871094 1.015625 606.738281 1.210938 606.648438 1.429688 C 606.554688 1.652344 606.511719 1.882812 606.511719 2.125 L 606.511719 61.21875 L 549.214844 61.21875 L 549.214844 2.125 C 549.214844 1.882812 549.167969 1.652344 549.078125 1.429688 C 548.984375 1.210938 548.855469 1.015625 548.683594 0.84375 C 548.515625 0.675781 548.320312 0.542969 548.097656 0.453125 C 547.875 0.359375 547.644531 0.3125 547.40625 0.3125 C 547.164062 0.3125 546.933594 0.359375 546.710938 0.453125 C 546.492188 0.542969 546.296875 0.675781 546.125 0.84375 C 545.957031 1.015625 545.824219 1.210938 545.734375 1.429688 C 545.640625 1.652344 545.597656 1.882812 545.597656 2.125 L 545.597656 61.21875 L 488.308594 61.21875 L 488.308594 2.125 C 488.308594 1.882812 488.261719 1.652344 488.171875 1.429688 C 488.078125 1.210938 487.949219 1.015625 487.78125 0.84375 C 487.609375 0.675781 487.414062 0.542969 487.191406 0.453125 C 486.972656 0.359375 486.742188 0.3125 486.5 0.3125 C 486.261719 0.3125 486.03125 0.359375 485.808594 0.453125 C 485.585938 0.542969 485.390625 0.675781 485.222656 0.84375 C 485.050781 1.015625 484.921875 1.210938 484.828125 1.429688 C 484.738281 1.652344 484.691406 1.882812 484.691406 2.125 L 484.691406 61.21875 L 427.40625 61.21875 L 427.40625 2.125 C 427.40625 1.882812 427.359375 1.652344 427.265625 1.429688 C 427.175781 1.210938 427.042969 1.015625 426.875 0.84375 C 426.707031 0.675781 426.507812 0.542969 426.289062 0.453125 C 426.066406 0.359375 425.835938 0.3125 425.59375 0.3125 C 425.355469 0.3125 425.125 0.359375 424.902344 0.453125 C 424.683594 0.542969 424.484375 0.675781 424.316406 0.84375 C 424.148438 1.015625 424.015625 1.210938 423.925781 1.429688 C 423.832031 1.652344 423.785156 1.882812 423.785156 2.125 L 423.785156 61.21875 L 366.492188 61.21875 L 366.492188 2.125 C 366.492188 1.882812 366.445312 1.652344 366.351562 1.429688 C 366.261719 1.210938 366.128906 1.015625 365.960938 0.84375 C 365.792969 0.675781 365.597656 0.542969 365.375 0.453125 C 365.152344 0.359375 364.921875 0.3125 364.683594 0.3125 C 364.441406 0.3125 364.210938 0.359375 363.988281 0.453125 C 363.769531 0.542969 363.570312 0.675781 363.402344 0.84375 C 363.234375 1.015625 363.101562 1.210938 363.011719 1.429688 C 362.917969 1.652344 362.871094 1.882812 362.871094 2.125 L 362.871094 61.21875 L 303.777344 61.21875 C 303.539062 61.21875 303.304688 61.265625 303.085938 61.355469 C 302.863281 61.449219 302.667969 61.578125 302.496094 61.75 C 302.328125 61.917969 302.199219 62.113281 302.105469 62.335938 C 302.015625 62.558594 301.96875 62.789062 301.96875 63.027344 C 301.96875 63.269531 302.015625 63.5 302.105469 63.71875 C 302.199219 63.941406 302.328125 64.136719 302.496094 64.308594 C 302.667969 64.476562 302.863281 64.609375 303.085938 64.699219 C 303.304688 64.792969 303.539062 64.835938 303.777344 64.835938 L 362.871094 64.835938 L 362.871094 122.132812 L 303.777344 122.132812 C 303.539062 122.132812 303.304688 122.179688 303.085938 122.269531 C 302.863281 122.363281 302.667969 122.492188 302.496094 122.664062 C 302.328125 122.832031 302.199219 123.027344 302.105469 123.25 C 302.015625 123.472656 301.96875 123.703125 301.96875 123.941406 C 301.96875 124.183594 302.015625 124.414062 302.105469 124.632812 C 302.199219 124.855469 302.328125 125.050781 302.496094 125.222656 C 302.667969 125.390625 302.863281 125.523438 303.085938 125.613281 C 303.304688 125.707031 303.539062 125.75 303.777344 125.75 L 362.871094 125.75 L 362.871094 183.039062 L 303.777344 183.039062 C 303.539062 183.039062 303.304688 183.082031 303.085938 183.175781 C 302.863281 183.265625 302.667969 183.398438 302.496094 183.566406 C 302.328125 183.738281 302.199219 183.933594 302.105469 184.15625 C 302.015625 184.375 301.96875 184.605469 301.96875 184.847656 C 301.96875 185.085938 302.015625 185.316406 302.105469 185.539062 C 302.199219 185.761719 302.328125 185.957031 302.496094 186.125 C 302.667969 186.296875 302.863281 186.425781 303.085938 186.519531 C 303.304688 186.609375 303.539062 186.65625 303.777344 186.65625 L 362.871094 186.65625 L 362.871094 243.941406 L 303.777344 243.941406 C 303.539062 243.941406 303.304688 243.988281 303.085938 244.082031 C 302.863281 244.171875 302.667969 244.300781 302.496094 244.472656 C 302.328125 244.640625 302.199219 244.835938 302.105469 245.058594 C 302.015625 245.28125 301.96875 245.511719 301.96875 245.75 C 301.96875 245.992188 302.015625 246.222656 302.105469 246.445312 C 302.199219 246.664062 302.328125 246.859375 302.496094 247.03125 C 302.667969 247.199219 302.863281 247.332031 303.085938 247.421875 C 303.304688 247.515625 303.539062 247.5625 303.777344 247.5625 L 362.871094 247.5625 L 362.871094 304.855469 L 303.777344 304.855469 C 303.539062 304.855469 303.304688 304.902344 303.085938 304.992188 C 302.863281 305.085938 302.667969 305.214844 302.496094 305.386719 C 302.328125 305.554688 302.199219 305.75 302.105469 305.972656 C 302.015625 306.195312 301.96875 306.425781 301.96875 306.664062 C 301.96875 306.90625 302.015625 307.136719 302.105469 307.359375 C 302.199219 307.578125 302.328125 307.773438 302.496094 307.945312 C 302.667969 308.113281 302.863281 308.246094 303.085938 308.335938 C 303.304688 308.429688 303.539062 308.472656 303.777344 308.472656 L 362.871094 308.472656 L 362.871094 367.570312 C 362.871094 367.808594 362.917969 368.039062 363.011719 368.261719 C 363.101562 368.484375 363.234375 368.679688 363.402344 368.847656 C 363.570312 369.019531 363.769531 369.148438 363.988281 369.242188 C 364.210938 369.332031 364.441406 369.378906 364.683594 369.378906 C 364.921875 369.378906 365.152344 369.332031 365.375 369.242188 C 365.597656 369.148438 365.792969 369.019531 365.960938 368.847656 C 366.128906 368.679688 366.261719 368.484375 366.351562 368.261719 C 366.445312 368.039062 366.492188 367.808594 366.492188 367.570312 L 366.492188 308.472656 L 423.785156 308.472656 L 423.785156 367.570312 C 423.785156 367.808594 423.832031 368.039062 423.925781 368.261719 C 424.015625 368.484375 424.148438 368.679688 424.316406 368.847656 C 424.484375 369.019531 424.683594 369.148438 424.902344 369.242188 C 425.125 369.332031 425.355469 369.378906 425.59375 369.378906 C 425.835938 369.378906 426.066406 369.332031 426.289062 369.242188 C 426.507812 369.148438 426.707031 369.019531 426.875 368.847656 C 427.042969 368.679688 427.175781 368.484375 427.265625 368.261719 C 427.359375 368.039062 427.40625 367.808594 427.40625 367.570312 L 427.40625 308.472656 L 484.691406 308.472656 L 484.691406 367.570312 C 484.691406 367.808594 484.738281 368.039062 484.828125 368.261719 C 484.921875 368.484375 485.050781 368.679688 485.222656 368.847656 C 485.390625 369.019531 485.585938 369.148438 485.808594 369.242188 C 486.03125 369.332031 486.261719 369.378906 486.5 369.378906 C 486.742188 369.378906 486.972656 369.332031 487.191406 369.242188 C 487.414062 369.148438 487.609375 369.019531 487.78125 368.847656 C 487.949219 368.679688 488.078125 368.484375 488.171875 368.261719 C 488.261719 368.039062 488.308594 367.808594 488.308594 367.570312 L 488.308594 308.472656 L 545.597656 308.472656 L 545.597656 367.570312 C 545.597656 367.808594 545.640625 368.039062 545.734375 368.261719 C 545.824219 368.484375 545.957031 368.679688 546.125 368.847656 C 546.296875 369.019531 546.492188 369.148438 546.710938 369.242188 C 546.933594 369.332031 547.164062 369.378906 547.40625 369.378906 C 547.644531 369.378906 547.875 369.332031 548.097656 369.242188 C 548.320312 369.148438 548.515625 369.019531 548.683594 368.847656 C 548.855469 368.679688 548.984375 368.484375 549.078125 368.261719 C 549.167969 368.039062 549.214844 367.808594 549.214844 367.570312 L 549.214844 308.472656 L 606.511719 308.472656 L 606.511719 367.570312 C 606.511719 367.808594 606.554688 368.039062 606.648438 368.261719 C 606.738281 368.484375 606.871094 368.679688 607.039062 368.847656 C 607.210938 369.019531 607.40625 369.148438 607.625 369.242188 C 607.847656 369.332031 608.078125 369.378906 608.320312 369.378906 C 608.558594 369.378906 608.789062 369.332031 609.011719 369.242188 C 609.234375 369.148438 609.429688 369.019531 609.597656 368.847656 C 609.769531 368.679688 609.898438 368.484375 609.992188 368.261719 C 610.082031 368.039062 610.128906 367.808594 610.128906 367.570312 L 610.128906 308.472656 L 669.222656 308.472656 C 669.464844 308.472656 669.695312 308.429688 669.914062 308.335938 C 670.136719 308.246094 670.332031 308.113281 670.503906 307.945312 C 670.671875 307.773438 670.804688 307.578125 670.894531 307.359375 C 670.988281 307.136719 671.03125 306.90625 671.03125 306.664062 C 671.03125 306.425781 670.988281 306.195312 670.894531 305.972656 C 670.804688 305.75 670.671875 305.554688 670.503906 305.386719 C 670.332031 305.214844 670.136719 305.085938 669.914062 304.992188 C 669.695312 304.902344 669.464844 304.855469 669.222656 304.855469 L 610.128906 304.855469 L 610.128906 247.5625 L 669.222656 247.5625 C 669.464844 247.5625 669.695312 247.515625 669.914062 247.421875 C 670.136719 247.332031 670.332031 247.199219 670.503906 247.03125 C 670.671875 246.859375 670.804688 246.664062 670.894531 246.445312 C 670.988281 246.222656 671.03125 245.992188 671.03125 245.75 C 671.03125 245.511719 670.988281 245.28125 670.894531 245.058594 C 670.804688 244.835938 670.671875 244.640625 670.503906 244.472656 C 670.332031 244.300781 670.136719 244.171875 669.914062 244.082031 C 669.695312 243.988281 669.464844 243.941406 669.222656 243.941406 L 610.128906 243.941406 L 610.128906 186.65625 L 669.222656 186.65625 C 669.464844 186.65625 669.695312 186.609375 669.914062 186.519531 C 670.136719 186.425781 670.332031 186.296875 670.503906 186.125 C 670.671875 185.957031 670.804688 185.761719 670.894531 185.539062 C 670.988281 185.316406 671.03125 185.085938 671.03125 184.847656 C 671.03125 184.605469 670.988281 184.375 670.894531 184.15625 C 670.804688 183.933594 670.671875 183.738281 670.503906 183.566406 C 670.332031 183.398438 670.136719 183.265625 669.914062 183.175781 C 669.695312 183.082031 669.464844 183.039062 669.222656 183.039062 L 610.128906 183.039062 L 610.128906 125.75 Z M 606.511719 64.835938 L 606.511719 122.132812 L 549.214844 122.132812 L 549.214844 64.835938 Z M 545.597656 64.835938 L 545.597656 122.132812 L 488.308594 122.132812 L 488.308594 64.835938 Z M 484.691406 186.65625 L 484.691406 243.941406 L 427.40625 243.941406 L 427.40625 186.65625 Z M 427.40625 183.039062 L 427.40625 125.75 L 484.691406 125.75 L 484.691406 183.039062 Z M 488.308594 186.65625 L 545.597656 186.65625 L 545.597656 243.941406 L 488.308594 243.941406 Z M 488.308594 183.039062 L 488.308594 125.75 L 545.597656 125.75 L 545.597656 183.039062 Z M 484.691406 64.835938 L 484.691406 122.132812 L 427.40625 122.132812 L 427.40625 64.835938 Z M 366.492188 64.835938 L 423.785156 64.835938 L 423.785156 122.132812 L 366.492188 122.132812 Z M 366.492188 125.75 L 423.785156 125.75 L 423.785156 183.039062 L 366.492188 183.039062 Z M 366.492188 186.65625 L 423.785156 186.65625 L 423.785156 243.941406 L 366.492188 243.941406 Z M 366.492188 304.855469 L 366.492188 247.5625 L 423.785156 247.5625 L 423.785156 304.855469 Z M 427.40625 304.855469 L 427.40625 247.5625 L 484.691406 247.5625 L 484.691406 304.855469 Z M 488.308594 304.855469 L 488.308594 247.5625 L 545.597656 247.5625 L 545.597656 304.855469 Z M 606.511719 304.855469 L 549.214844 304.855469 L 549.214844 247.5625 L 606.511719 247.5625 Z M 606.511719 243.941406 L 549.214844 243.941406 L 549.214844 186.65625 L 606.511719 186.65625 Z M 606.511719 183.039062 L 549.214844 183.039062 L 549.214844 125.75 L 606.511719 125.75 Z M 606.511719 183.039062 " fill-opacity="1" fill-rule="nonzero"/></g><g clip-path="url(#b013911ce8)"><path fill="#e2fff4" d="M 974.527344 125.75 C 974.765625 125.75 975 125.707031 975.21875 125.613281 C 975.441406 125.523438 975.636719 125.390625 975.808594 125.222656 C 975.976562 125.050781 976.105469 124.855469 976.199219 124.632812 C 976.289062 124.414062 976.335938 124.183594 976.335938 123.941406 C 976.335938 123.703125 976.289062 123.472656 976.199219 123.25 C 976.105469 123.027344 975.976562 122.832031 975.808594 122.664062 C 975.636719 122.492188 975.441406 122.363281 975.21875 122.269531 C 975 122.179688 974.765625 122.132812 974.527344 122.132812 L 915.433594 122.132812 L 915.433594 64.835938 L 974.527344 64.835938 C 974.765625 64.835938 975 64.792969 975.21875 64.699219 C 975.441406 64.609375 975.636719 64.476562 975.808594 64.308594 C 975.976562 64.136719 976.105469 63.941406 976.199219 63.71875 C 976.289062 63.5 976.335938 63.269531 976.335938 63.027344 C 976.335938 62.789062 976.289062 62.558594 976.199219 62.335938 C 976.105469 62.113281 975.976562 61.917969 975.808594 61.75 C 975.636719 61.578125 975.441406 61.449219 975.21875 61.355469 C 975 61.265625 974.765625 61.21875 974.527344 61.21875 L 915.433594 61.21875 L 915.433594 2.125 C 915.433594 1.882812 915.386719 1.652344 915.292969 1.429688 C 915.203125 1.210938 915.070312 1.015625 914.902344 0.84375 C 914.730469 0.675781 914.535156 0.542969 914.316406 0.453125 C 914.09375 0.359375 913.863281 0.3125 913.621094 0.3125 C 913.382812 0.3125 913.152344 0.359375 912.929688 0.453125 C 912.707031 0.542969 912.511719 0.675781 912.34375 0.84375 C 912.175781 1.015625 912.042969 1.210938 911.953125 1.429688 C 911.859375 1.652344 911.8125 1.882812 911.8125 2.125 L 911.8125 61.21875 L 854.519531 61.21875 L 854.519531 2.125 C 854.519531 1.882812 854.472656 1.652344 854.378906 1.429688 C 854.289062 1.210938 854.15625 1.015625 853.988281 0.84375 C 853.820312 0.675781 853.621094 0.542969 853.402344 0.453125 C 853.179688 0.359375 852.949219 0.3125 852.710938 0.3125 C 852.46875 0.3125 852.238281 0.359375 852.015625 0.453125 C 851.796875 0.542969 851.597656 0.675781 851.429688 0.84375 C 851.261719 1.015625 851.128906 1.210938 851.039062 1.429688 C 850.945312 1.652344 850.898438 1.882812 850.898438 2.125 L 850.898438 61.21875 L 793.613281 61.21875 L 793.613281 2.125 C 793.613281 1.882812 793.566406 1.652344 793.476562 1.429688 C 793.382812 1.210938 793.253906 1.015625 793.082031 0.84375 C 792.914062 0.675781 792.71875 0.542969 792.496094 0.453125 C 792.273438 0.359375 792.042969 0.3125 791.804688 0.3125 C 791.5625 0.3125 791.332031 0.359375 791.113281 0.453125 C 790.890625 0.542969 790.695312 0.675781 790.523438 0.84375 C 790.355469 1.015625 790.226562 1.210938 790.132812 1.429688 C 790.039062 1.652344 789.996094 1.882812 789.996094 2.125 L 789.996094 61.21875 L 732.707031 61.21875 L 732.707031 2.125 C 732.707031 1.882812 732.664062 1.652344 732.570312 1.429688 C 732.480469 1.210938 732.347656 1.015625 732.179688 0.84375 C 732.007812 0.675781 731.8125 0.542969 731.59375 0.453125 C 731.371094 0.359375 731.140625 0.3125 730.898438 0.3125 C 730.660156 0.3125 730.429688 0.359375 730.207031 0.453125 C 729.984375 0.542969 729.789062 0.675781 729.621094 0.84375 C 729.449219 1.015625 729.320312 1.210938 729.226562 1.429688 C 729.136719 1.652344 729.089844 1.882812 729.089844 2.125 L 729.089844 61.21875 L 671.792969 61.21875 L 671.792969 2.125 C 671.792969 1.882812 671.75 1.652344 671.65625 1.429688 C 671.566406 1.210938 671.433594 1.015625 671.265625 0.84375 C 671.09375 0.675781 670.898438 0.542969 670.679688 0.453125 C 670.457031 0.359375 670.226562 0.3125 669.984375 0.3125 C 669.746094 0.3125 669.515625 0.359375 669.292969 0.453125 C 669.070312 0.542969 668.875 0.675781 668.707031 0.84375 C 668.535156 1.015625 668.40625 1.210938 668.3125 1.429688 C 668.222656 1.652344 668.175781 1.882812 668.175781 2.125 L 668.175781 61.21875 L 609.082031 61.21875 C 608.839844 61.21875 608.609375 61.265625 608.386719 61.355469 C 608.167969 61.449219 607.972656 61.578125 607.800781 61.75 C 607.632812 61.917969 607.5 62.113281 607.410156 62.335938 C 607.316406 62.558594 607.273438 62.789062 607.273438 63.027344 C 607.273438 63.269531 607.316406 63.5 607.410156 63.71875 C 607.5 63.941406 607.632812 64.136719 607.800781 64.308594 C 607.972656 64.476562 608.167969 64.609375 608.386719 64.699219 C 608.609375 64.792969 608.839844 64.835938 609.082031 64.835938 L 668.175781 64.835938 L 668.175781 122.132812 L 609.082031 122.132812 C 608.839844 122.132812 608.609375 122.179688 608.386719 122.269531 C 608.167969 122.363281 607.972656 122.492188 607.800781 122.664062 C 607.632812 122.832031 607.5 123.027344 607.410156 123.25 C 607.316406 123.472656 607.273438 123.703125 607.273438 123.941406 C 607.273438 124.183594 607.316406 124.414062 607.410156 124.632812 C 607.5 124.855469 607.632812 125.050781 607.800781 125.222656 C 607.972656 125.390625 608.167969 125.523438 608.386719 125.613281 C 608.609375 125.707031 608.839844 125.75 609.082031 125.75 L 668.175781 125.75 L 668.175781 183.039062 L 609.082031 183.039062 C 608.839844 183.039062 608.609375 183.082031 608.386719 183.175781 C 608.167969 183.265625 607.972656 183.398438 607.800781 183.566406 C 607.632812 183.738281 607.5 183.933594 607.410156 184.15625 C 607.316406 184.375 607.273438 184.605469 607.273438 184.847656 C 607.273438 185.085938 607.316406 185.316406 607.410156 185.539062 C 607.5 185.761719 607.632812 185.957031 607.800781 186.125 C 607.972656 186.296875 608.167969 186.425781 608.386719 186.519531 C 608.609375 186.609375 608.839844 186.65625 609.082031 186.65625 L 668.175781 186.65625 L 668.175781 243.941406 L 609.082031 243.941406 C 608.839844 243.941406 608.609375 243.988281 608.386719 244.082031 C 608.167969 244.171875 607.972656 244.300781 607.800781 244.472656 C 607.632812 244.640625 607.5 244.835938 607.410156 245.058594 C 607.316406 245.28125 607.273438 245.511719 607.273438 245.75 C 607.273438 245.992188 607.316406 246.222656 607.410156 246.445312 C 607.5 246.664062 607.632812 246.859375 607.800781 247.03125 C 607.972656 247.199219 608.167969 247.332031 608.386719 247.421875 C 608.609375 247.515625 608.839844 247.5625 609.082031 247.5625 L 668.175781 247.5625 L 668.175781 304.855469 L 609.082031 304.855469 C 608.839844 304.855469 608.609375 304.902344 608.386719 304.992188 C 608.167969 305.085938 607.972656 305.214844 607.800781 305.386719 C 607.632812 305.554688 607.5 305.75 607.410156 305.972656 C 607.316406 306.195312 607.273438 306.425781 607.273438 306.664062 C 607.273438 306.90625 607.316406 307.136719 607.410156 307.359375 C 607.5 307.578125 607.632812 307.773438 607.800781 307.945312 C 607.972656 308.113281 608.167969 308.246094 608.386719 308.335938 C 608.609375 308.429688 608.839844 308.472656 609.082031 308.472656 L 668.175781 308.472656 L 668.175781 367.570312 C 668.175781 367.808594 668.222656 368.039062 668.3125 368.261719 C 668.40625 368.484375 668.535156 368.679688 668.707031 368.847656 C 668.875 369.019531 669.070312 369.148438 669.292969 369.242188 C 669.515625 369.332031 669.746094 369.378906 669.984375 369.378906 C 670.226562 369.378906 670.457031 369.332031 670.679688 369.242188 C 670.898438 369.148438 671.09375 369.019531 671.265625 368.847656 C 671.433594 368.679688 671.566406 368.484375 671.65625 368.261719 C 671.75 368.039062 671.792969 367.808594 671.792969 367.570312 L 671.792969 308.472656 L 729.089844 308.472656 L 729.089844 367.570312 C 729.089844 367.808594 729.136719 368.039062 729.226562 368.261719 C 729.320312 368.484375 729.449219 368.679688 729.621094 368.847656 C 729.789062 369.019531 729.984375 369.148438 730.207031 369.242188 C 730.429688 369.332031 730.660156 369.378906 730.898438 369.378906 C 731.140625 369.378906 731.371094 369.332031 731.59375 369.242188 C 731.8125 369.148438 732.007812 369.019531 732.179688 368.847656 C 732.347656 368.679688 732.480469 368.484375 732.570312 368.261719 C 732.664062 368.039062 732.707031 367.808594 732.707031 367.570312 L 732.707031 308.472656 L 789.996094 308.472656 L 789.996094 367.570312 C 789.996094 367.808594 790.039062 368.039062 790.132812 368.261719 C 790.226562 368.484375 790.355469 368.679688 790.523438 368.847656 C 790.695312 369.019531 790.890625 369.148438 791.113281 369.242188 C 791.332031 369.332031 791.5625 369.378906 791.804688 369.378906 C 792.042969 369.378906 792.273438 369.332031 792.496094 369.242188 C 792.71875 369.148438 792.914062 369.019531 793.082031 368.847656 C 793.253906 368.679688 793.382812 368.484375 793.476562 368.261719 C 793.566406 368.039062 793.613281 367.808594 793.613281 367.570312 L 793.613281 308.472656 L 850.898438 308.472656 L 850.898438 367.570312 C 850.898438 367.808594 850.945312 368.039062 851.039062 368.261719 C 851.128906 368.484375 851.261719 368.679688 851.429688 368.847656 C 851.597656 369.019531 851.796875 369.148438 852.015625 369.242188 C 852.238281 369.332031 852.46875 369.378906 852.710938 369.378906 C 852.949219 369.378906 853.179688 369.332031 853.402344 369.242188 C 853.621094 369.148438 853.820312 369.019531 853.988281 368.847656 C 854.15625 368.679688 854.289062 368.484375 854.378906 368.261719 C 854.472656 368.039062 854.519531 367.808594 854.519531 367.570312 L 854.519531 308.472656 L 911.8125 308.472656 L 911.8125 367.570312 C 911.8125 367.808594 911.859375 368.039062 911.953125 368.261719 C 912.042969 368.484375 912.175781 368.679688 912.34375 368.847656 C 912.511719 369.019531 912.707031 369.148438 912.929688 369.242188 C 913.152344 369.332031 913.382812 369.378906 913.621094 369.378906 C 913.863281 369.378906 914.09375 369.332031 914.316406 369.242188 C 914.535156 369.148438 914.730469 369.019531 914.902344 368.847656 C 915.070312 368.679688 915.203125 368.484375 915.292969 368.261719 C 915.386719 368.039062 915.433594 367.808594 915.433594 367.570312 L 915.433594 308.472656 L 974.527344 308.472656 C 974.765625 308.472656 975 308.429688 975.21875 308.335938 C 975.441406 308.246094 975.636719 308.113281 975.808594 307.945312 C 975.976562 307.773438 976.105469 307.578125 976.199219 307.359375 C 976.289062 307.136719 976.335938 306.90625 976.335938 306.664062 C 976.335938 306.425781 976.289062 306.195312 976.199219 305.972656 C 976.105469 305.75 975.976562 305.554688 975.808594 305.386719 C 975.636719 305.214844 975.441406 305.085938 975.21875 304.992188 C 975 304.902344 974.765625 304.855469 974.527344 304.855469 L 915.433594 304.855469 L 915.433594 247.5625 L 974.527344 247.5625 C 974.765625 247.5625 975 247.515625 975.21875 247.421875 C 975.441406 247.332031 975.636719 247.199219 975.808594 247.03125 C 975.976562 246.859375 976.105469 246.664062 976.199219 246.445312 C 976.289062 246.222656 976.335938 245.992188 976.335938 245.75 C 976.335938 245.511719 976.289062 245.28125 976.199219 245.058594 C 976.105469 244.835938 975.976562 244.640625 975.808594 244.472656 C 975.636719 244.300781 975.441406 244.171875 975.21875 244.082031 C 975 243.988281 974.765625 243.941406 974.527344 243.941406 L 915.433594 243.941406 L 915.433594 186.65625 L 974.527344 186.65625 C 974.765625 186.65625 975 186.609375 975.21875 186.519531 C 975.441406 186.425781 975.636719 186.296875 975.808594 186.125 C 975.976562 185.957031 976.105469 185.761719 976.199219 185.539062 C 976.289062 185.316406 976.335938 185.085938 976.335938 184.847656 C 976.335938 184.605469 976.289062 184.375 976.199219 184.15625 C 976.105469 183.933594 975.976562 183.738281 975.808594 183.566406 C 975.636719 183.398438 975.441406 183.265625 975.21875 183.175781 C 975 183.082031 974.765625 183.039062 974.527344 183.039062 L 915.433594 183.039062 L 915.433594 125.75 Z M 911.8125 64.835938 L 911.8125 122.132812 L 854.519531 122.132812 L 854.519531 64.835938 Z M 850.898438 64.835938 L 850.898438 122.132812 L 793.613281 122.132812 L 793.613281 64.835938 Z M 789.996094 186.65625 L 789.996094 243.941406 L 732.707031 243.941406 L 732.707031 186.65625 Z M 732.707031 183.039062 L 732.707031 125.75 L 789.996094 125.75 L 789.996094 183.039062 Z M 793.613281 186.65625 L 850.898438 186.65625 L 850.898438 243.941406 L 793.613281 243.941406 Z M 793.613281 183.039062 L 793.613281 125.75 L 850.898438 125.75 L 850.898438 183.039062 Z M 789.996094 64.835938 L 789.996094 122.132812 L 732.707031 122.132812 L 732.707031 64.835938 Z M 671.792969 64.835938 L 729.089844 64.835938 L 729.089844 122.132812 L 671.792969 122.132812 Z M 671.792969 125.75 L 729.089844 125.75 L 729.089844 183.039062 L 671.792969 183.039062 Z M 671.792969 186.65625 L 729.089844 186.65625 L 729.089844 243.941406 L 671.792969 243.941406 Z M 671.792969 304.855469 L 671.792969 247.5625 L 729.089844 247.5625 L 729.089844 304.855469 Z M 732.707031 304.855469 L 732.707031 247.5625 L 789.996094 247.5625 L 789.996094 304.855469 Z M 793.613281 304.855469 L 793.613281 247.5625 L 850.898438 247.5625 L 850.898438 304.855469 Z M 911.8125 304.855469 L 854.519531 304.855469 L 854.519531 247.5625 L 911.8125 247.5625 Z M 911.8125 243.941406 L 854.519531 243.941406 L 854.519531 186.65625 L 911.8125 186.65625 Z M 911.8125 183.039062 L 854.519531 183.039062 L 854.519531 125.75 L 911.8125 125.75 Z M 911.8125 183.039062 " fill-opacity="1" fill-rule="nonzero"/></g><g clip-path="url(#f7665871bf)"><path fill="#e2fff4" d="M 1275.441406 125.75 C 1275.679688 125.75 1275.914062 125.707031 1276.132812 125.613281 C 1276.355469 125.523438 1276.550781 125.390625 1276.722656 125.222656 C 1276.890625 125.050781 1277.019531 124.855469 1277.113281 124.632812 C 1277.203125 124.414062 1277.25 124.183594 1277.25 123.941406 C 1277.25 123.703125 1277.203125 123.472656 1277.113281 123.25 C 1277.019531 123.027344 1276.890625 122.832031 1276.722656 122.664062 C 1276.550781 122.492188 1276.355469 122.363281 1276.132812 122.269531 C 1275.914062 122.179688 1275.679688 122.132812 1275.441406 122.132812 L 1216.347656 122.132812 L 1216.347656 64.835938 L 1275.441406 64.835938 C 1275.679688 64.835938 1275.914062 64.792969 1276.132812 64.699219 C 1276.355469 64.609375 1276.550781 64.476562 1276.722656 64.308594 C 1276.890625 64.136719 1277.019531 63.941406 1277.113281 63.71875 C 1277.203125 63.5 1277.25 63.269531 1277.25 63.027344 C 1277.25 62.789062 1277.203125 62.558594 1277.113281 62.335938 C 1277.019531 62.113281 1276.890625 61.917969 1276.722656 61.75 C 1276.550781 61.578125 1276.355469 61.449219 1276.132812 61.355469 C 1275.914062 61.265625 1275.679688 61.21875 1275.441406 61.21875 L 1216.347656 61.21875 L 1216.347656 2.125 C 1216.347656 1.882812 1216.300781 1.652344 1216.207031 1.429688 C 1216.117188 1.210938 1215.984375 1.015625 1215.816406 0.84375 C 1215.648438 0.675781 1215.449219 0.542969 1215.230469 0.453125 C 1215.007812 0.359375 1214.777344 0.3125 1214.535156 0.3125 C 1214.296875 0.3125 1214.066406 0.359375 1213.84375 0.453125 C 1213.621094 0.542969 1213.425781 0.675781 1213.257812 0.84375 C 1213.089844 1.015625 1212.957031 1.210938 1212.867188 1.429688 C 1212.773438 1.652344 1212.726562 1.882812 1212.726562 2.125 L 1212.726562 61.21875 L 1155.433594 61.21875 L 1155.433594 2.125 C 1155.433594 1.882812 1155.386719 1.652344 1155.292969 1.429688 C 1155.203125 1.210938 1155.070312 1.015625 1154.902344 0.84375 C 1154.734375 0.675781 1154.535156 0.542969 1154.316406 0.453125 C 1154.09375 0.359375 1153.863281 0.3125 1153.625 0.3125 C 1153.382812 0.3125 1153.152344 0.359375 1152.929688 0.453125 C 1152.710938 0.542969 1152.511719 0.675781 1152.34375 0.84375 C 1152.175781 1.015625 1152.042969 1.210938 1151.953125 1.429688 C 1151.859375 1.652344 1151.8125 1.882812 1151.8125 2.125 L 1151.8125 61.21875 L 1094.527344 61.21875 L 1094.527344 2.125 C 1094.527344 1.882812 1094.480469 1.652344 1094.390625 1.429688 C 1094.296875 1.210938 1094.167969 1.015625 1093.996094 0.84375 C 1093.828125 0.675781 1093.632812 0.542969 1093.410156 0.453125 C 1093.1875 0.359375 1092.957031 0.3125 1092.71875 0.3125 C 1092.476562 0.3125 1092.246094 0.359375 1092.027344 0.453125 C 1091.804688 0.542969 1091.609375 0.675781 1091.4375 0.84375 C 1091.269531 1.015625 1091.140625 1.210938 1091.046875 1.429688 C 1090.957031 1.652344 1090.910156 1.882812 1090.910156 2.125 L 1090.910156 61.21875 L 1033.621094 61.21875 L 1033.621094 2.125 C 1033.621094 1.882812 1033.578125 1.652344 1033.484375 1.429688 C 1033.394531 1.210938 1033.261719 1.015625 1033.09375 0.84375 C 1032.921875 0.675781 1032.726562 0.542969 1032.507812 0.453125 C 1032.285156 0.359375 1032.054688 0.3125 1031.8125 0.3125 C 1031.574219 0.3125 1031.34375 0.359375 1031.121094 0.453125 C 1030.898438 0.542969 1030.703125 0.675781 1030.535156 0.84375 C 1030.363281 1.015625 1030.234375 1.210938 1030.140625 1.429688 C 1030.050781 1.652344 1030.003906 1.882812 1030.003906 2.125 L 1030.003906 61.21875 L 972.707031 61.21875 L 972.707031 2.125 C 972.707031 1.882812 972.664062 1.652344 972.570312 1.429688 C 972.480469 1.210938 972.347656 1.015625 972.179688 0.84375 C 972.007812 0.675781 971.8125 0.542969 971.59375 0.453125 C 971.371094 0.359375 971.140625 0.3125 970.898438 0.3125 C 970.660156 0.3125 970.429688 0.359375 970.207031 0.453125 C 969.984375 0.542969 969.789062 0.675781 969.621094 0.84375 C 969.449219 1.015625 969.320312 1.210938 969.226562 1.429688 C 969.136719 1.652344 969.089844 1.882812 969.089844 2.125 L 969.089844 61.21875 L 909.996094 61.21875 C 909.753906 61.21875 909.523438 61.265625 909.304688 61.355469 C 909.082031 61.449219 908.886719 61.578125 908.714844 61.75 C 908.546875 61.917969 908.414062 62.113281 908.324219 62.335938 C 908.230469 62.558594 908.1875 62.789062 908.1875 63.027344 C 908.1875 63.269531 908.230469 63.5 908.324219 63.71875 C 908.414062 63.941406 908.546875 64.136719 908.714844 64.308594 C 908.886719 64.476562 909.082031 64.609375 909.304688 64.699219 C 909.523438 64.792969 909.753906 64.835938 909.996094 64.835938 L 969.089844 64.835938 L 969.089844 122.132812 L 909.996094 122.132812 C 909.753906 122.132812 909.523438 122.179688 909.304688 122.269531 C 909.082031 122.363281 908.886719 122.492188 908.714844 122.664062 C 908.546875 122.832031 908.414062 123.027344 908.324219 123.25 C 908.230469 123.472656 908.1875 123.703125 908.1875 123.941406 C 908.1875 124.183594 908.230469 124.414062 908.324219 124.632812 C 908.414062 124.855469 908.546875 125.050781 908.714844 125.222656 C 908.886719 125.390625 909.082031 125.523438 909.304688 125.613281 C 909.523438 125.707031 909.753906 125.75 909.996094 125.75 L 969.089844 125.75 L 969.089844 183.039062 L 909.996094 183.039062 C 909.753906 183.039062 909.523438 183.082031 909.304688 183.175781 C 909.082031 183.265625 908.886719 183.398438 908.714844 183.566406 C 908.546875 183.738281 908.414062 183.933594 908.324219 184.15625 C 908.230469 184.375 908.1875 184.605469 908.1875 184.847656 C 908.1875 185.085938 908.230469 185.316406 908.324219 185.539062 C 908.414062 185.761719 908.546875 185.957031 908.714844 186.125 C 908.886719 186.296875 909.082031 186.425781 909.304688 186.519531 C 909.523438 186.609375 909.753906 186.65625 909.996094 186.65625 L 969.089844 186.65625 L 969.089844 243.941406 L 909.996094 243.941406 C 909.753906 243.941406 909.523438 243.988281 909.304688 244.082031 C 909.082031 244.171875 908.886719 244.300781 908.714844 244.472656 C 908.546875 244.640625 908.414062 244.835938 908.324219 245.058594 C 908.230469 245.28125 908.1875 245.511719 908.1875 245.75 C 908.1875 245.992188 908.230469 246.222656 908.324219 246.445312 C 908.414062 246.664062 908.546875 246.859375 908.714844 247.03125 C 908.886719 247.199219 909.082031 247.332031 909.304688 247.421875 C 909.523438 247.515625 909.753906 247.5625 909.996094 247.5625 L 969.089844 247.5625 L 969.089844 304.855469 L 909.996094 304.855469 C 909.753906 304.855469 909.523438 304.902344 909.304688 304.992188 C 909.082031 305.085938 908.886719 305.214844 908.714844 305.386719 C 908.546875 305.554688 908.414062 305.75 908.324219 305.972656 C 908.230469 306.195312 908.1875 306.425781 908.1875 306.664062 C 908.1875 306.90625 908.230469 307.136719 908.324219 307.359375 C 908.414062 307.578125 908.546875 307.773438 908.714844 307.945312 C 908.886719 308.113281 909.082031 308.246094 909.304688 308.335938 C 909.523438 308.429688 909.753906 308.472656 909.996094 308.472656 L 969.089844 308.472656 L 969.089844 367.570312 C 969.089844 367.808594 969.136719 368.039062 969.226562 368.261719 C 969.320312 368.484375 969.449219 368.679688 969.621094 368.847656 C 969.789062 369.019531 969.984375 369.148438 970.207031 369.242188 C 970.429688 369.332031 970.660156 369.378906 970.898438 369.378906 C 971.140625 369.378906 971.371094 369.332031 971.59375 369.242188 C 971.8125 369.148438 972.007812 369.019531 972.179688 368.847656 C 972.347656 368.679688 972.480469 368.484375 972.570312 368.261719 C 972.664062 368.039062 972.707031 367.808594 972.707031 367.570312 L 972.707031 308.472656 L 1030.003906 308.472656 L 1030.003906 367.570312 C 1030.003906 367.808594 1030.050781 368.039062 1030.140625 368.261719 C 1030.234375 368.484375 1030.363281 368.679688 1030.535156 368.847656 C 1030.703125 369.019531 1030.898438 369.148438 1031.121094 369.242188 C 1031.34375 369.332031 1031.574219 369.378906 1031.8125 369.378906 C 1032.054688 369.378906 1032.285156 369.332031 1032.507812 369.242188 C 1032.726562 369.148438 1032.921875 369.019531 1033.09375 368.847656 C 1033.261719 368.679688 1033.394531 368.484375 1033.484375 368.261719 C 1033.578125 368.039062 1033.621094 367.808594 1033.621094 367.570312 L 1033.621094 308.472656 L 1090.910156 308.472656 L 1090.910156 367.570312 C 1090.910156 367.808594 1090.957031 368.039062 1091.046875 368.261719 C 1091.140625 368.484375 1091.269531 368.679688 1091.4375 368.847656 C 1091.609375 369.019531 1091.804688 369.148438 1092.027344 369.242188 C 1092.246094 369.332031 1092.476562 369.378906 1092.71875 369.378906 C 1092.957031 369.378906 1093.1875 369.332031 1093.410156 369.242188 C 1093.632812 369.148438 1093.828125 369.019531 1093.996094 368.847656 C 1094.167969 368.679688 1094.296875 368.484375 1094.390625 368.261719 C 1094.480469 368.039062 1094.527344 367.808594 1094.527344 367.570312 L 1094.527344 308.472656 L 1151.8125 308.472656 L 1151.8125 367.570312 C 1151.8125 367.808594 1151.859375 368.039062 1151.953125 368.261719 C 1152.042969 368.484375 1152.175781 368.679688 1152.34375 368.847656 C 1152.511719 369.019531 1152.710938 369.148438 1152.929688 369.242188 C 1153.152344 369.332031 1153.382812 369.378906 1153.625 369.378906 C 1153.863281 369.378906 1154.09375 369.332031 1154.316406 369.242188 C 1154.535156 369.148438 1154.734375 369.019531 1154.902344 368.847656 C 1155.070312 368.679688 1155.203125 368.484375 1155.292969 368.261719 C 1155.386719 368.039062 1155.433594 367.808594 1155.433594 367.570312 L 1155.433594 308.472656 L 1212.726562 308.472656 L 1212.726562 367.570312 C 1212.726562 367.808594 1212.773438 368.039062 1212.867188 368.261719 C 1212.957031 368.484375 1213.089844 368.679688 1213.257812 368.847656 C 1213.425781 369.019531 1213.621094 369.148438 1213.84375 369.242188 C 1214.066406 369.332031 1214.296875 369.378906 1214.535156 369.378906 C 1214.777344 369.378906 1215.007812 369.332031 1215.230469 369.242188 C 1215.449219 369.148438 1215.648438 369.019531 1215.816406 368.847656 C 1215.984375 368.679688 1216.117188 368.484375 1216.207031 368.261719 C 1216.300781 368.039062 1216.347656 367.808594 1216.347656 367.570312 L 1216.347656 308.472656 L 1275.441406 308.472656 C 1275.679688 308.472656 1275.914062 308.429688 1276.132812 308.335938 C 1276.355469 308.246094 1276.550781 308.113281 1276.722656 307.945312 C 1276.890625 307.773438 1277.019531 307.578125 1277.113281 307.359375 C 1277.203125 307.136719 1277.25 306.90625 1277.25 306.664062 C 1277.25 306.425781 1277.203125 306.195312 1277.113281 305.972656 C 1277.019531 305.75 1276.890625 305.554688 1276.722656 305.386719 C 1276.550781 305.214844 1276.355469 305.085938 1276.132812 304.992188 C 1275.914062 304.902344 1275.679688 304.855469 1275.441406 304.855469 L 1216.347656 304.855469 L 1216.347656 247.5625 L 1275.441406 247.5625 C 1275.679688 247.5625 1275.914062 247.515625 1276.132812 247.421875 C 1276.355469 247.332031 1276.550781 247.199219 1276.722656 247.03125 C 1276.890625 246.859375 1277.019531 246.664062 1277.113281 246.445312 C 1277.203125 246.222656 1277.25 245.992188 1277.25 245.75 C 1277.25 245.511719 1277.203125 245.28125 1277.113281 245.058594 C 1277.019531 244.835938 1276.890625 244.640625 1276.722656 244.472656 C 1276.550781 244.300781 1276.355469 244.171875 1276.132812 244.082031 C 1275.914062 243.988281 1275.679688 243.941406 1275.441406 243.941406 L 1216.347656 243.941406 L 1216.347656 186.65625 L 1275.441406 186.65625 C 1275.679688 186.65625 1275.914062 186.609375 1276.132812 186.519531 C 1276.355469 186.425781 1276.550781 186.296875 1276.722656 186.125 C 1276.890625 185.957031 1277.019531 185.761719 1277.113281 185.539062 C 1277.203125 185.316406 1277.25 185.085938 1277.25 184.847656 C 1277.25 184.605469 1277.203125 184.375 1277.113281 184.15625 C 1277.019531 183.933594 1276.890625 183.738281 1276.722656 183.566406 C 1276.550781 183.398438 1276.355469 183.265625 1276.132812 183.175781 C 1275.914062 183.082031 1275.679688 183.039062 1275.441406 183.039062 L 1216.347656 183.039062 L 1216.347656 125.75 Z M 1212.726562 64.835938 L 1212.726562 122.132812 L 1155.433594 122.132812 L 1155.433594 64.835938 Z M 1151.8125 64.835938 L 1151.8125 122.132812 L 1094.527344 122.132812 L 1094.527344 64.835938 Z M 1090.910156 186.65625 L 1090.910156 243.941406 L 1033.621094 243.941406 L 1033.621094 186.65625 Z M 1033.621094 183.039062 L 1033.621094 125.75 L 1090.910156 125.75 L 1090.910156 183.039062 Z M 1094.527344 186.65625 L 1151.8125 186.65625 L 1151.8125 243.941406 L 1094.527344 243.941406 Z M 1094.527344 183.039062 L 1094.527344 125.75 L 1151.8125 125.75 L 1151.8125 183.039062 Z M 1090.910156 64.835938 L 1090.910156 122.132812 L 1033.621094 122.132812 L 1033.621094 64.835938 Z M 972.707031 64.835938 L 1030.003906 64.835938 L 1030.003906 122.132812 L 972.707031 122.132812 Z M 972.707031 125.75 L 1030.003906 125.75 L 1030.003906 183.039062 L 972.707031 183.039062 Z M 972.707031 186.65625 L 1030.003906 186.65625 L 1030.003906 243.941406 L 972.707031 243.941406 Z M 972.707031 304.855469 L 972.707031 247.5625 L 1030.003906 247.5625 L 1030.003906 304.855469 Z M 1033.621094 304.855469 L 1033.621094 247.5625 L 1090.910156 247.5625 L 1090.910156 304.855469 Z M 1094.527344 304.855469 L 1094.527344 247.5625 L 1151.8125 247.5625 L 1151.8125 304.855469 Z M 1212.726562 304.855469 L 1155.433594 304.855469 L 1155.433594 247.5625 L 1212.726562 247.5625 Z M 1212.726562 243.941406 L 1155.433594 243.941406 L 1155.433594 186.65625 L 1212.726562 186.65625 Z M 1212.726562 183.039062 L 1155.433594 183.039062 L 1155.433594 125.75 L 1212.726562 125.75 Z M 1212.726562 183.039062 " fill-opacity="1" fill-rule="nonzero"/></g><g clip-path="url(#48ba26f728)"><path fill="#e2fff4" d="M 1578.890625 125.75 C 1579.132812 125.75 1579.363281 125.707031 1579.582031 125.613281 C 1579.804688 125.523438 1580 125.390625 1580.171875 125.222656 C 1580.339844 125.050781 1580.472656 124.855469 1580.5625 124.632812 C 1580.65625 124.414062 1580.699219 124.183594 1580.699219 123.941406 C 1580.699219 123.703125 1580.65625 123.472656 1580.5625 123.25 C 1580.472656 123.027344 1580.339844 122.832031 1580.171875 122.664062 C 1580 122.492188 1579.804688 122.363281 1579.582031 122.269531 C 1579.363281 122.179688 1579.132812 122.132812 1578.890625 122.132812 L 1519.796875 122.132812 L 1519.796875 64.835938 L 1578.890625 64.835938 C 1579.132812 64.835938 1579.363281 64.792969 1579.582031 64.699219 C 1579.804688 64.609375 1580 64.476562 1580.171875 64.308594 C 1580.339844 64.136719 1580.472656 63.941406 1580.5625 63.71875 C 1580.65625 63.5 1580.699219 63.269531 1580.699219 63.027344 C 1580.699219 62.789062 1580.65625 62.558594 1580.5625 62.335938 C 1580.472656 62.113281 1580.339844 61.917969 1580.171875 61.75 C 1580 61.578125 1579.804688 61.449219 1579.582031 61.355469 C 1579.363281 61.265625 1579.132812 61.21875 1578.890625 61.21875 L 1519.796875 61.21875 L 1519.796875 2.125 C 1519.796875 1.882812 1519.75 1.652344 1519.660156 1.429688 C 1519.566406 1.210938 1519.4375 1.015625 1519.265625 0.84375 C 1519.097656 0.675781 1518.902344 0.542969 1518.679688 0.453125 C 1518.457031 0.359375 1518.226562 0.3125 1517.988281 0.3125 C 1517.746094 0.3125 1517.515625 0.359375 1517.292969 0.453125 C 1517.074219 0.542969 1516.878906 0.675781 1516.707031 0.84375 C 1516.539062 1.015625 1516.40625 1.210938 1516.316406 1.429688 C 1516.222656 1.652344 1516.175781 1.882812 1516.175781 2.125 L 1516.175781 61.21875 L 1458.882812 61.21875 L 1458.882812 2.125 C 1458.882812 1.882812 1458.835938 1.652344 1458.746094 1.429688 C 1458.652344 1.210938 1458.523438 1.015625 1458.351562 0.84375 C 1458.183594 0.675781 1457.988281 0.542969 1457.765625 0.453125 C 1457.542969 0.359375 1457.3125 0.3125 1457.074219 0.3125 C 1456.832031 0.3125 1456.601562 0.359375 1456.378906 0.453125 C 1456.160156 0.542969 1455.964844 0.675781 1455.792969 0.84375 C 1455.625 1.015625 1455.492188 1.210938 1455.402344 1.429688 C 1455.308594 1.652344 1455.265625 1.882812 1455.265625 2.125 L 1455.265625 61.21875 L 1397.976562 61.21875 L 1397.976562 2.125 C 1397.976562 1.882812 1397.929688 1.652344 1397.839844 1.429688 C 1397.746094 1.210938 1397.617188 1.015625 1397.449219 0.84375 C 1397.277344 0.675781 1397.082031 0.542969 1396.859375 0.453125 C 1396.640625 0.359375 1396.410156 0.3125 1396.167969 0.3125 C 1395.929688 0.3125 1395.699219 0.359375 1395.476562 0.453125 C 1395.253906 0.542969 1395.058594 0.675781 1394.890625 0.84375 C 1394.71875 1.015625 1394.589844 1.210938 1394.496094 1.429688 C 1394.40625 1.652344 1394.359375 1.882812 1394.359375 2.125 L 1394.359375 61.21875 L 1337.074219 61.21875 L 1337.074219 2.125 C 1337.074219 1.882812 1337.027344 1.652344 1336.933594 1.429688 C 1336.84375 1.210938 1336.710938 1.015625 1336.542969 0.84375 C 1336.375 0.675781 1336.175781 0.542969 1335.957031 0.453125 C 1335.734375 0.359375 1335.503906 0.3125 1335.261719 0.3125 C 1335.023438 0.3125 1334.792969 0.359375 1334.570312 0.453125 C 1334.347656 0.542969 1334.152344 0.675781 1333.984375 0.84375 C 1333.816406 1.015625 1333.683594 1.210938 1333.59375 1.429688 C 1333.5 1.652344 1333.453125 1.882812 1333.453125 2.125 L 1333.453125 61.21875 L 1276.160156 61.21875 L 1276.160156 2.125 C 1276.160156 1.882812 1276.113281 1.652344 1276.019531 1.429688 C 1275.929688 1.210938 1275.796875 1.015625 1275.628906 0.84375 C 1275.460938 0.675781 1275.265625 0.542969 1275.042969 0.453125 C 1274.820312 0.359375 1274.589844 0.3125 1274.351562 0.3125 C 1274.109375 0.3125 1273.878906 0.359375 1273.65625 0.453125 C 1273.4375 0.542969 1273.238281 0.675781 1273.070312 0.84375 C 1272.902344 1.015625 1272.769531 1.210938 1272.679688 1.429688 C 1272.585938 1.652344 1272.539062 1.882812 1272.539062 2.125 L 1272.539062 61.21875 L 1213.445312 61.21875 C 1213.207031 61.21875 1212.972656 61.265625 1212.753906 61.355469 C 1212.53125 61.449219 1212.335938 61.578125 1212.164062 61.75 C 1211.996094 61.917969 1211.867188 62.113281 1211.773438 62.335938 C 1211.683594 62.558594 1211.636719 62.789062 1211.636719 63.027344 C 1211.636719 63.269531 1211.683594 63.5 1211.773438 63.71875 C 1211.867188 63.941406 1211.996094 64.136719 1212.164062 64.308594 C 1212.335938 64.476562 1212.53125 64.609375 1212.753906 64.699219 C 1212.972656 64.792969 1213.207031 64.835938 1213.445312 64.835938 L 1272.539062 64.835938 L 1272.539062 122.132812 L 1213.445312 122.132812 C 1213.207031 122.132812 1212.972656 122.179688 1212.753906 122.269531 C 1212.53125 122.363281 1212.335938 122.492188 1212.164062 122.664062 C 1211.996094 122.832031 1211.867188 123.027344 1211.773438 123.25 C 1211.683594 123.472656 1211.636719 123.703125 1211.636719 123.941406 C 1211.636719 124.183594 1211.683594 124.414062 1211.773438 124.632812 C 1211.867188 124.855469 1211.996094 125.050781 1212.164062 125.222656 C 1212.335938 125.390625 1212.53125 125.523438 1212.753906 125.613281 C 1212.972656 125.707031 1213.207031 125.75 1213.445312 125.75 L 1272.539062 125.75 L 1272.539062 183.039062 L 1213.445312 183.039062 C 1213.207031 183.039062 1212.972656 183.082031 1212.753906 183.175781 C 1212.53125 183.265625 1212.335938 183.398438 1212.164062 183.566406 C 1211.996094 183.738281 1211.867188 183.933594 1211.773438 184.15625 C 1211.683594 184.375 1211.636719 184.605469 1211.636719 184.847656 C 1211.636719 185.085938 1211.683594 185.316406 1211.773438 185.539062 C 1211.867188 185.761719 1211.996094 185.957031 1212.164062 186.125 C 1212.335938 186.296875 1212.53125 186.425781 1212.753906 186.519531 C 1212.972656 186.609375 1213.207031 186.65625 1213.445312 186.65625 L 1272.539062 186.65625 L 1272.539062 243.941406 L 1213.445312 243.941406 C 1213.207031 243.941406 1212.972656 243.988281 1212.753906 244.082031 C 1212.53125 244.171875 1212.335938 244.300781 1212.164062 244.472656 C 1211.996094 244.640625 1211.867188 244.835938 1211.773438 245.058594 C 1211.683594 245.28125 1211.636719 245.511719 1211.636719 245.75 C 1211.636719 245.992188 1211.683594 246.222656 1211.773438 246.445312 C 1211.867188 246.664062 1211.996094 246.859375 1212.164062 247.03125 C 1212.335938 247.199219 1212.53125 247.332031 1212.753906 247.421875 C 1212.972656 247.515625 1213.207031 247.5625 1213.445312 247.5625 L 1272.539062 247.5625 L 1272.539062 304.855469 L 1213.445312 304.855469 C 1213.207031 304.855469 1212.972656 304.902344 1212.753906 304.992188 C 1212.53125 305.085938 1212.335938 305.214844 1212.164062 305.386719 C 1211.996094 305.554688 1211.867188 305.75 1211.773438 305.972656 C 1211.683594 306.195312 1211.636719 306.425781 1211.636719 306.664062 C 1211.636719 306.90625 1211.683594 307.136719 1211.773438 307.359375 C 1211.867188 307.578125 1211.996094 307.773438 1212.164062 307.945312 C 1212.335938 308.113281 1212.53125 308.246094 1212.753906 308.335938 C 1212.972656 308.429688 1213.207031 308.472656 1213.445312 308.472656 L 1272.539062 308.472656 L 1272.539062 367.570312 C 1272.539062 367.808594 1272.585938 368.039062 1272.679688 368.261719 C 1272.769531 368.484375 1272.902344 368.679688 1273.070312 368.847656 C 1273.238281 369.019531 1273.4375 369.148438 1273.65625 369.242188 C 1273.878906 369.332031 1274.109375 369.378906 1274.351562 369.378906 C 1274.589844 369.378906 1274.820312 369.332031 1275.042969 369.242188 C 1275.265625 369.148438 1275.460938 369.019531 1275.628906 368.847656 C 1275.796875 368.679688 1275.929688 368.484375 1276.019531 368.261719 C 1276.113281 368.039062 1276.160156 367.808594 1276.160156 367.570312 L 1276.160156 308.472656 L 1333.453125 308.472656 L 1333.453125 367.570312 C 1333.453125 367.808594 1333.5 368.039062 1333.59375 368.261719 C 1333.683594 368.484375 1333.816406 368.679688 1333.984375 368.847656 C 1334.152344 369.019531 1334.347656 369.148438 1334.570312 369.242188 C 1334.792969 369.332031 1335.023438 369.378906 1335.261719 369.378906 C 1335.503906 369.378906 1335.734375 369.332031 1335.957031 369.242188 C 1336.175781 369.148438 1336.375 369.019531 1336.542969 368.847656 C 1336.710938 368.679688 1336.84375 368.484375 1336.933594 368.261719 C 1337.027344 368.039062 1337.074219 367.808594 1337.074219 367.570312 L 1337.074219 308.472656 L 1394.359375 308.472656 L 1394.359375 367.570312 C 1394.359375 367.808594 1394.40625 368.039062 1394.496094 368.261719 C 1394.589844 368.484375 1394.71875 368.679688 1394.890625 368.847656 C 1395.058594 369.019531 1395.253906 369.148438 1395.476562 369.242188 C 1395.699219 369.332031 1395.929688 369.378906 1396.167969 369.378906 C 1396.410156 369.378906 1396.640625 369.332031 1396.859375 369.242188 C 1397.082031 369.148438 1397.277344 369.019531 1397.449219 368.847656 C 1397.617188 368.679688 1397.746094 368.484375 1397.839844 368.261719 C 1397.929688 368.039062 1397.976562 367.808594 1397.976562 367.570312 L 1397.976562 308.472656 L 1455.265625 308.472656 L 1455.265625 367.570312 C 1455.265625 367.808594 1455.308594 368.039062 1455.402344 368.261719 C 1455.492188 368.484375 1455.625 368.679688 1455.792969 368.847656 C 1455.964844 369.019531 1456.160156 369.148438 1456.378906 369.242188 C 1456.601562 369.332031 1456.832031 369.378906 1457.074219 369.378906 C 1457.3125 369.378906 1457.542969 369.332031 1457.765625 369.242188 C 1457.988281 369.148438 1458.183594 369.019531 1458.351562 368.847656 C 1458.523438 368.679688 1458.652344 368.484375 1458.746094 368.261719 C 1458.835938 368.039062 1458.882812 367.808594 1458.882812 367.570312 L 1458.882812 308.472656 L 1516.175781 308.472656 L 1516.175781 367.570312 C 1516.175781 367.808594 1516.222656 368.039062 1516.316406 368.261719 C 1516.40625 368.484375 1516.539062 368.679688 1516.707031 368.847656 C 1516.878906 369.019531 1517.074219 369.148438 1517.292969 369.242188 C 1517.515625 369.332031 1517.746094 369.378906 1517.988281 369.378906 C 1518.226562 369.378906 1518.457031 369.332031 1518.679688 369.242188 C 1518.902344 369.148438 1519.097656 369.019531 1519.265625 368.847656 C 1519.4375 368.679688 1519.566406 368.484375 1519.660156 368.261719 C 1519.75 368.039062 1519.796875 367.808594 1519.796875 367.570312 L 1519.796875 308.472656 L 1578.890625 308.472656 C 1579.132812 308.472656 1579.363281 308.429688 1579.582031 308.335938 C 1579.804688 308.246094 1580 308.113281 1580.171875 307.945312 C 1580.339844 307.773438 1580.472656 307.578125 1580.5625 307.359375 C 1580.65625 307.136719 1580.699219 306.90625 1580.699219 306.664062 C 1580.699219 306.425781 1580.65625 306.195312 1580.5625 305.972656 C 1580.472656 305.75 1580.339844 305.554688 1580.171875 305.386719 C 1580 305.214844 1579.804688 305.085938 1579.582031 304.992188 C 1579.363281 304.902344 1579.132812 304.855469 1578.890625 304.855469 L 1519.796875 304.855469 L 1519.796875 247.5625 L 1578.890625 247.5625 C 1579.132812 247.5625 1579.363281 247.515625 1579.582031 247.421875 C 1579.804688 247.332031 1580 247.199219 1580.171875 247.03125 C 1580.339844 246.859375 1580.472656 246.664062 1580.5625 246.445312 C 1580.65625 246.222656 1580.699219 245.992188 1580.699219 245.75 C 1580.699219 245.511719 1580.65625 245.28125 1580.5625 245.058594 C 1580.472656 244.835938 1580.339844 244.640625 1580.171875 244.472656 C 1580 244.300781 1579.804688 244.171875 1579.582031 244.082031 C 1579.363281 243.988281 1579.132812 243.941406 1578.890625 243.941406 L 1519.796875 243.941406 L 1519.796875 186.65625 L 1578.890625 186.65625 C 1579.132812 186.65625 1579.363281 186.609375 1579.582031 186.519531 C 1579.804688 186.425781 1580 186.296875 1580.171875 186.125 C 1580.339844 185.957031 1580.472656 185.761719 1580.5625 185.539062 C 1580.65625 185.316406 1580.699219 185.085938 1580.699219 184.847656 C 1580.699219 184.605469 1580.65625 184.375 1580.5625 184.15625 C 1580.472656 183.933594 1580.339844 183.738281 1580.171875 183.566406 C 1580 183.398438 1579.804688 183.265625 1579.582031 183.175781 C 1579.363281 183.082031 1579.132812 183.039062 1578.890625 183.039062 L 1519.796875 183.039062 L 1519.796875 125.75 Z M 1516.175781 64.835938 L 1516.175781 122.132812 L 1458.882812 122.132812 L 1458.882812 64.835938 Z M 1455.265625 64.835938 L 1455.265625 122.132812 L 1397.976562 122.132812 L 1397.976562 64.835938 Z M 1394.359375 186.65625 L 1394.359375 243.941406 L 1337.074219 243.941406 L 1337.074219 186.65625 Z M 1337.074219 183.039062 L 1337.074219 125.75 L 1394.359375 125.75 L 1394.359375 183.039062 Z M 1397.976562 186.65625 L 1455.265625 186.65625 L 1455.265625 243.941406 L 1397.976562 243.941406 Z M 1397.976562 183.039062 L 1397.976562 125.75 L 1455.265625 125.75 L 1455.265625 183.039062 Z M 1394.359375 64.835938 L 1394.359375 122.132812 L 1337.074219 122.132812 L 1337.074219 64.835938 Z M 1276.160156 64.835938 L 1333.453125 64.835938 L 1333.453125 122.132812 L 1276.160156 122.132812 Z M 1276.160156 125.75 L 1333.453125 125.75 L 1333.453125 183.039062 L 1276.160156 183.039062 Z M 1276.160156 186.65625 L 1333.453125 186.65625 L 1333.453125 243.941406 L 1276.160156 243.941406 Z M 1276.160156 304.855469 L 1276.160156 247.5625 L 1333.453125 247.5625 L 1333.453125 304.855469 Z M 1337.074219 304.855469 L 1337.074219 247.5625 L 1394.359375 247.5625 L 1394.359375 304.855469 Z M 1397.976562 304.855469 L 1397.976562 247.5625 L 1455.265625 247.5625 L 1455.265625 304.855469 Z M 1516.175781 304.855469 L 1458.882812 304.855469 L 1458.882812 247.5625 L 1516.175781 247.5625 Z M 1516.175781 243.941406 L 1458.882812 243.941406 L 1458.882812 186.65625 L 1516.175781 186.65625 Z M 1516.175781 183.039062 L 1458.882812 183.039062 L 1458.882812 125.75 L 1516.175781 125.75 Z M 1516.175781 183.039062 " fill-opacity="1" fill-rule="nonzero"/></g></g></g></g></g></svg>